<?xml version="1.0" encoding="utf-8"?>
<!-- Generator: Adobe Illustrator 26.2.1, SVG Export Plug-In . SVG Version: 6.00 Build 0)  -->
<svg version="1.1" xmlns="http://www.w3.org/2000/svg" xmlns:xlink="http://www.w3.org/1999/xlink" x="0px" y="0px"
	 viewBox="0 0 540 287" style="enable-background:new 0 0 540 287;" xml:space="preserve">
<style type="text/css">
	.st0{fill-rule:evenodd;clip-rule:evenodd;fill:#FFFFFF;}
	.st1{fill-rule:evenodd;clip-rule:evenodd;fill:#CBD6E2;}
	.st2{fill-rule:evenodd;clip-rule:evenodd;fill:#F2F5F8;}
	.st3{fill:#CBD6E2;}
	.st4{fill:none;stroke:#CBD6E2;stroke-width:3;stroke-miterlimit:10;}
</style>
<g id="Calque_2">
	<path class="st0" d="M8,0h524c4.4,0,8,3.6,8,8v271c0,4.4-3.6,8-8,8H8c-4.4,0-8-3.6-8-8V8C0,3.6,3.6,0,8,0z"/>
</g>
<g id="Layer_1">
	<path id="Rectangle-2_00000137119558592279437490000011914048829927773354_" class="st1" d="M223,163h252c2.8,0,5,2.2,5,5
		s-2.2,5-5,5H223c-2.8,0-5-2.2-5-5S220.2,163,223,163z"/>
	<path id="Rectangle-2-Copy_00000146476376327918281540000000336404409672226733_" class="st1" d="M223,188h252c2.8,0,5,2.2,5,5
		c0,2.8-2.2,5-5,5H223c-2.8,0-5-2.2-5-5C218,190.2,220.2,188,223,188z"/>
	<path class="st1" d="M223,213h252c2.8,0,5,2.2,5,5s-2.2,5-5,5H223c-2.8,0-5-2.2-5-5S220.2,213,223,213z"/>
	<g id="Image-Placeholder_00000092441514740379822400000015126007328918844857_">
		<path class="st2" d="M174.7,184.9H81.3c-10.1,0-18.3-8.2-18.3-18.3V89.2c0-10.1,8.2-18.3,18.3-18.3h93.5
			c10.1,0,18.3,8.2,18.3,18.3v77.5C193,176.7,184.8,184.9,174.7,184.9z"/>
		<g>
			<path class="st3" d="M103.9,140.3v5H89.8v-34.9H95v29.9H103.9z"/>
			<path class="st3" d="M123.6,118.8V137c0,5.5-3.2,8.8-8.5,8.8s-8.5-3.3-8.5-8.8v-18.2c0-5.5,3.2-8.8,8.5-8.8
				S123.6,113.3,123.6,118.8z M111.9,118.8V137c0,2.6,1.1,4,3.2,4s3.2-1.4,3.2-4v-18.1c0-2.6-1.1-4-3.2-4S111.9,116.2,111.9,118.8z"
				/>
			<path class="st3" d="M144.8,118.3v2.4l-5.1,0.2v-2.1c0-2.8-1-4-3.1-4s-3.1,1.2-3.1,3.5v19c0,2.3,1,3.5,3,3.5s3-1.2,3-4v-6h-3V126
				h8.2v11.4c0,5.3-3,8.4-8.3,8.4c-5.2,0-8.2-3.1-8.2-8.4v-19.1c0-5.3,3-8.4,8.2-8.4C141.7,110,144.8,113,144.8,118.3z"/>
			<path class="st3" d="M166.2,118.8V137c0,5.5-3.2,8.8-8.5,8.8s-8.5-3.3-8.5-8.8v-18.2c0-5.5,3.2-8.8,8.5-8.8
				S166.2,113.3,166.2,118.8z M154.5,118.8V137c0,2.6,1.1,4,3.2,4s3.2-1.4,3.2-4v-18.1c0-2.6-1.1-4-3.2-4S154.5,116.2,154.5,118.8z"
				/>
		</g>
	</g>
	<path id="Rectangle-2_00000181060199361272914030000000690985113930260881_" class="st1" d="M223,70h182c2.8,0,5,2.2,5,5
		s-2.2,5-5,5H223c-2.8,0-5-2.2-5-5S220.2,70,223,70z"/>
	<path id="Rectangle-2-Copy_00000165930033256297133560000010826082431387071157_" class="st1" d="M223,95h182c2.8,0,5,2.2,5,5
		c0,2.8-2.2,5-5,5H223c-2.8,0-5-2.2-5-5C218,97.2,220.2,95,223,95z"/>
	<path class="st1" d="M223,120h182c2.8,0,5,2.2,5,5s-2.2,5-5,5H223c-2.8,0-5-2.2-5-5S220.2,120,223,120z"/>
	<g>
		<circle id="Oval_00000170272739372050349360000006775364779209681043_" class="st1" cx="89.5" cy="214" r="12"/>
		<circle class="st1" cx="124.5" cy="214" r="12"/>
		<circle id="Oval-Copy_00000009562800116298121020000000341527357763882941_" class="st1" cx="158.5" cy="214" r="12"/>
	</g>
	<line class="st4" x1="219.3" y1="146.9" x2="471.9" y2="146.9"/>
</g>
</svg>
