<?xml version="1.0" encoding="utf-8"?>
<!-- Generator: Adobe Illustrator 26.2.1, SVG Export Plug-In . SVG Version: 6.00 Build 0)  -->
<svg version="1.1" xmlns="http://www.w3.org/2000/svg" xmlns:xlink="http://www.w3.org/1999/xlink" x="0px" y="0px"
	 viewBox="0 0 540 287" style="enable-background:new 0 0 540 287;" xml:space="preserve">
<style type="text/css">
	.st0{fill-rule:evenodd;clip-rule:evenodd;fill:#FFFFFF;}
	.st1{fill-rule:evenodd;clip-rule:evenodd;fill:#CBD6E2;}
	.st2{fill-rule:evenodd;clip-rule:evenodd;fill:#F2F5F8;}
	.st3{fill:#CBD6E2;}
	.st4{fill:none;stroke:#CBD6E2;stroke-width:3;stroke-miterlimit:10;}
</style>
<g id="Calque_2">
	<path class="st0" d="M8,0h524c4.4,0,8,3.6,8,8v271c0,4.4-3.6,8-8,8H8c-4.4,0-8-3.6-8-8V8C0,3.6,3.6,0,8,0z"/>
</g>
<g id="Layer_1">
	<g id="Image-Placeholder_00000000945331681045778980000017418075239053577907_">
		<g id="Mask_00000014614743887721804890000004328188041182215846_">
			<circle class="st2" cx="124" cy="124" r="64"/>
		</g>
	</g>
	<g>
		<circle id="Oval_00000129199513905552466280000001860267531501370519_" class="st1" cx="89.5" cy="214" r="12"/>
		<circle class="st1" cx="124.5" cy="214" r="12"/>
		<circle id="Oval-Copy_00000072256847071249815420000014149727281135171727_" class="st1" cx="158.5" cy="214" r="12"/>
	</g>
	<g>
		<path class="st3" d="M123.8,88.5c8.9,0,16.2,7,16.2,15.6c0,8.6-7.3,25.1-16.2,25.1s-16.2-16.5-16.2-25.1
			C107.7,95.5,114.9,88.5,123.8,88.5z"/>
		<path class="st3" d="M162.7,159.5H85.2c0,0-1.3-31.4,18.6-31.4c4.2,6.1,9.9,11.9,20.4,11.9c10.5,0,15.5-5.9,19.6-12
			C166.1,128,162.7,159.5,162.7,159.5z"/>
	</g>
	<path id="Rectangle-2_00000127739051747044431380000002312883924335602056_" class="st1" d="M223,161.5h252c2.8,0,5,2.2,5,5
		s-2.2,5-5,5H223c-2.8,0-5-2.2-5-5S220.2,161.5,223,161.5z"/>
	<path id="Rectangle-2-Copy_00000183942689329915408420000010731248039532096907_" class="st1" d="M223,186.5h252c2.8,0,5,2.2,5,5
		c0,2.8-2.2,5-5,5H223c-2.8,0-5-2.2-5-5C218,188.7,220.2,186.5,223,186.5z"/>
	<path class="st1" d="M223,211.5h252c2.8,0,5,2.2,5,5s-2.2,5-5,5H223c-2.8,0-5-2.2-5-5S220.2,211.5,223,211.5z"/>
	<path id="Rectangle-2_00000160877795863333549610000005579376029096155571_" class="st1" d="M223,68.5h182c2.8,0,5,2.2,5,5
		s-2.2,5-5,5H223c-2.8,0-5-2.2-5-5S220.2,68.5,223,68.5z"/>
	<path id="Rectangle-2-Copy_00000108996710098120066380000014805186699248698800_" class="st1" d="M223,93.5h182c2.8,0,5,2.2,5,5
		c0,2.8-2.2,5-5,5H223c-2.8,0-5-2.2-5-5C218,95.8,220.2,93.5,223,93.5z"/>
	<path class="st1" d="M223,118.5h182c2.8,0,5,2.2,5,5s-2.2,5-5,5H223c-2.8,0-5-2.2-5-5S220.2,118.5,223,118.5z"/>
	<line class="st4" x1="219.3" y1="145.4" x2="471.9" y2="145.4"/>
</g>
</svg>
