<?xml version="1.0" encoding="utf-8"?>
<!-- Generator: Adobe Illustrator 26.2.1, SVG Export Plug-In . SVG Version: 6.00 Build 0)  -->
<svg version="1.1" xmlns="http://www.w3.org/2000/svg" xmlns:xlink="http://www.w3.org/1999/xlink" x="0px" y="0px"
	 viewBox="0 0 540 287" style="enable-background:new 0 0 540 287;" xml:space="preserve">
<style type="text/css">
	.st0{fill-rule:evenodd;clip-rule:evenodd;fill:#FFFFFF;}
	.st1{fill-rule:evenodd;clip-rule:evenodd;fill:#CBD6E2;}
	.st2{fill-rule:evenodd;clip-rule:evenodd;fill:#F2F5F8;}
	.st3{fill:#CBD6E2;}
	.st4{fill:none;stroke:#CBD6E2;stroke-width:3;stroke-miterlimit:10;}
</style>
<g id="Calque_2">
	<path class="st0" d="M8-1608.2h524c4.4,0,8,3.6,8,8v271c0,4.4-3.6,8-8,8H8c-4.4,0-8-3.6-8-8v-271C0-1604.6,3.6-1608.2,8-1608.2z"/>
	<path class="st0" d="M8,0h524c4.4,0,8,3.6,8,8v271c0,4.4-3.6,8-8,8H8c-4.4,0-8-3.6-8-8V8C0,3.6,3.6,0,8,0z"/>
	<path class="st0" d="M8-455.5h524c4.4,0,8,3.6,8,8v271c0,4.4-3.6,8-8,8H8c-4.4,0-8-3.6-8-8v-271C0-451.9,3.6-455.5,8-455.5z"/>
	<path class="st0" d="M8-853.4h524c4.4,0,8,3.6,8,8v271c0,4.4-3.6,8-8,8H8c-4.4,0-8-3.6-8-8v-271C0-849.9,3.6-853.4,8-853.4z"/>
	<path class="st0" d="M8-1217.2h524c4.4,0,8,3.6,8,8v271c0,4.4-3.6,8-8,8H8c-4.4,0-8-3.6-8-8v-271C0-1213.6,3.6-1217.2,8-1217.2z"/>
	<path class="st0" d="M8-2049.6h524c4.4,0,8,3.6,8,8v271c0,4.4-3.6,8-8,8H8c-4.4,0-8-3.6-8-8v-271C0-2046.1,3.6-2049.6,8-2049.6z"/>
	<path class="st0" d="M8-2397.1h524c4.4,0,8,3.6,8,8v271c0,4.4-3.6,8-8,8H8c-4.4,0-8-3.6-8-8v-271C0-2393.5,3.6-2397.1,8-2397.1z"/>
	<path class="st0" d="M8-2763.1h524c4.4,0,8,3.6,8,8v271c0,4.4-3.6,8-8,8H8c-4.4,0-8-3.6-8-8v-271C0-2759.5,3.6-2763.1,8-2763.1z"/>
</g>
<g id="Layer_1">
	<path id="Rectangle-2_00000137119558592279437490000011914048829927773354_" class="st1" d="M223-2600.1h252c2.8,0,5,2.2,5,5
		s-2.2,5-5,5H223c-2.8,0-5-2.2-5-5S220.2-2600.1,223-2600.1z"/>
	<path id="Rectangle-2-Copy_00000146476376327918281540000000336404409672226733_" class="st1" d="M223-2575.1h252c2.8,0,5,2.2,5,5
		s-2.2,5-5,5H223c-2.8,0-5-2.2-5-5S220.2-2575.1,223-2575.1z"/>
	<path class="st1" d="M223-2550.1h252c2.8,0,5,2.2,5,5s-2.2,5-5,5H223c-2.8,0-5-2.2-5-5S220.2-2550.1,223-2550.1z"/>
	<g id="Image-Placeholder_00000092441514740379822400000015126007328918844857_">
		<path class="st2" d="M174.7-2578.2H81.3c-10.1,0-18.3-8.2-18.3-18.3v-77.5c0-10.1,8.2-18.3,18.3-18.3h93.5
			c10.1,0,18.3,8.2,18.3,18.3v77.5C193-2586.4,184.8-2578.2,174.7-2578.2z"/>
		<g>
			<path class="st3" d="M103.9-2622.7v5H89.8v-34.9H95v29.9H103.9z"/>
			<path class="st3" d="M123.6-2644.3v18.2c0,5.5-3.2,8.8-8.5,8.8s-8.5-3.3-8.5-8.8v-18.2c0-5.5,3.2-8.8,8.5-8.8
				S123.6-2649.8,123.6-2644.3z M111.9-2644.3v18.1c0,2.6,1.1,4,3.2,4s3.2-1.4,3.2-4v-18.1c0-2.6-1.1-4-3.2-4
				S111.9-2646.8,111.9-2644.3z"/>
			<path class="st3" d="M144.8-2644.7v2.4l-5.1,0.2v-2.1c0-2.8-1-4-3.1-4s-3.1,1.2-3.1,3.5v19c0,2.3,1,3.5,3,3.5s3-1.2,3-4v-6h-3
				v-4.9h8.2v11.4c0,5.3-3,8.4-8.3,8.4c-5.2,0-8.2-3.1-8.2-8.4v-19.1c0-5.3,3-8.4,8.2-8.4C141.7-2653.1,144.8-2650,144.8-2644.7z"/>
			<path class="st3" d="M166.2-2644.3v18.2c0,5.5-3.2,8.8-8.5,8.8s-8.5-3.3-8.5-8.8v-18.2c0-5.5,3.2-8.8,8.5-8.8
				S166.2-2649.8,166.2-2644.3z M154.5-2644.3v18.1c0,2.6,1.1,4,3.2,4s3.2-1.4,3.2-4v-18.1c0-2.6-1.1-4-3.2-4
				S154.5-2646.8,154.5-2644.3z"/>
		</g>
	</g>
	<path id="Rectangle-2_00000181060199361272914030000000690985113930260881_" class="st1" d="M223-2693.1h182c2.8,0,5,2.2,5,5
		s-2.2,5-5,5H223c-2.8,0-5-2.2-5-5S220.2-2693.1,223-2693.1z"/>
	<path id="Rectangle-2-Copy_00000165930033256297133560000010826082431387071157_" class="st1" d="M223-2668.1h182c2.8,0,5,2.2,5,5
		s-2.2,5-5,5H223c-2.8,0-5-2.2-5-5S220.2-2668.1,223-2668.1z"/>
	<path class="st1" d="M223-2643.1h182c2.8,0,5,2.2,5,5s-2.2,5-5,5H223c-2.8,0-5-2.2-5-5S220.2-2643.1,223-2643.1z"/>
	<g>
		<circle id="Oval_00000170272739372050349360000006775364779209681043_" class="st1" cx="89.5" cy="-2549.1" r="12"/>
		<circle class="st1" cx="124.5" cy="-2549.1" r="12"/>
		<circle id="Oval-Copy_00000009562800116298121020000000341527357763882941_" class="st1" cx="158.5" cy="-2549.1" r="12"/>
	</g>
	<text transform="matrix(1 0 0 1 -79 -2625.1843)" style="font-family:'MyriadPro-Regular'; font-size:12px;">2 columns</text>
	<text transform="matrix(1 0 0 1 -79 -2248.2126)" style="font-family:'MyriadPro-Regular'; font-size:12px;">2 columns alt</text>
	<text transform="matrix(1 0 0 1 -79 -1909.3267)" style="font-family:'MyriadPro-Regular'; font-size:12px;">Model1</text>
	<text transform="matrix(1 0 0 1 -79 -1450.7424)" style="font-family:'MyriadPro-Regular'; font-size:12px;">1 column</text>
	<text transform="matrix(1 0 0 1 -79 -1074.1637)" style="font-family:'MyriadPro-Regular'; font-size:12px;">Corporate</text>
	<text transform="matrix(1 0 0 1 -79 -719.7325)" style="font-family:'MyriadPro-Regular'; font-size:12px;">Smartphone</text>
	<text transform="matrix(1 0 0 1 -79 -332.6563)" style="font-family:'MyriadPro-Regular'; font-size:12px;">Bannere</text>
	<line class="st4" x1="219.3" y1="-2616.2" x2="471.9" y2="-2616.2"/>
	<g>
		<g>
			<circle id="Oval_00000055670314084055141320000015539847093565619586_" class="st1" cx="188.6" cy="-1379.9" r="12"/>
			<circle class="st1" cx="223.6" cy="-1379.9" r="12"/>
			<circle id="Oval-Copy_00000157295440791107080550000010351585492589390738_" class="st1" cx="257.6" cy="-1379.9" r="12"/>
		</g>
		<g id="Image-Placeholder_00000107558589754187516480000007155883995966686651_">
			<path class="st2" d="M248.5-1488h-60.1c-6.5,0-11.7-5.3-11.7-11.7v-49.8c0-6.5,5.3-11.7,11.7-11.7h60.1c6.5,0,11.7,5.3,11.7,11.7
				v49.8C260.3-1493.3,255-1488,248.5-1488z"/>
			<g>
				<path class="st3" d="M202.9-1516.7v3.2h-9.1v-22.4h3.4v19.2H202.9z"/>
				<path class="st3" d="M215.7-1530.6v11.7c0,3.5-2.1,5.7-5.5,5.7s-5.5-2.1-5.5-5.7v-11.7c0-3.5,2.1-5.7,5.5-5.7
					S215.7-1534.1,215.7-1530.6z M208.1-1530.5v11.7c0,1.7,0.7,2.6,2.1,2.6s2.1-0.9,2.1-2.6v-11.7c0-1.7-0.7-2.6-2.1-2.6
					S208.1-1532.2,208.1-1530.5z"/>
				<path class="st3" d="M229.2-1530.9v1.5l-3.3,0.2v-1.3c0-1.8-0.7-2.6-2-2.6c-1.3,0-2,0.8-2,2.3v12.2c0,1.5,0.6,2.3,2,2.3
					s2-0.8,2-2.6v-3.8H224v-3.1h5.3v7.3c0,3.4-2,5.4-5.4,5.4c-3.4,0-5.3-2-5.3-5.4v-12.3c0-3.4,1.9-5.4,5.3-5.4
					C227.3-1536.2,229.2-1534.3,229.2-1530.9z"/>
				<path class="st3" d="M243.1-1530.6v11.7c0,3.5-2.1,5.7-5.5,5.7s-5.5-2.1-5.5-5.7v-11.7c0-3.5,2.1-5.7,5.5-5.7
					S243.1-1534.1,243.1-1530.6z M235.5-1530.5v11.7c0,1.7,0.7,2.6,2.1,2.6s2.1-0.9,2.1-2.6v-11.7c0-1.7-0.7-2.6-2.1-2.6
					S235.5-1532.2,235.5-1530.5z"/>
			</g>
		</g>
		<g>
			<path id="Rectangle-2_00000103978926884953393570000011710367608386795695_" class="st1" d="M180.7-1471.7h178.5
				c2.3,0,4.1,1.8,4.1,4.1s-1.8,4.1-4.1,4.1H180.7c-2.3,0-4.1-1.8-4.1-4.1S178.5-1471.7,180.7-1471.7z"/>
			<path id="Rectangle-2-Copy_00000155121930581965489930000006637069257207536528_" class="st1" d="M180.7-1451.9h178.5
				c2.3,0,4.1,1.8,4.1,4.1c0,2.3-1.8,4.1-4.1,4.1H180.7c-2.3,0-4.1-1.8-4.1-4.1C176.6-1450,178.5-1451.9,180.7-1451.9z"/>
			<path class="st1" d="M180.7-1432h178.5c2.3,0,4.1,1.8,4.1,4.1s-1.8,4.1-4.1,4.1H180.7c-2.3,0-4.1-1.8-4.1-4.1
				S178.5-1432,180.7-1432z"/>
			<path class="st1" d="M180.7-1412.2h178.5c2.3,0,4.1,1.8,4.1,4.1s-1.8,4.1-4.1,4.1H180.7c-2.3,0-4.1-1.8-4.1-4.1
				S178.5-1412.2,180.7-1412.2z"/>
		</g>
	</g>
	<g>
		<path id="Rectangle-2_00000138552628259619750660000015937557222502356654_" class="st1" d="M205.7-775.2h78.5
			c2.3,0,4.1,1.8,4.1,4.1c0,2.3-1.8,4.1-4.1,4.1h-78.5c-2.3,0-4.1-1.8-4.1-4.1C201.6-773.4,203.5-775.2,205.7-775.2z"/>
		<path id="Rectangle-2-Copy_00000023971061093931236310000001893192048097964961_" class="st1" d="M205.7-754.8h78.5
			c2.3,0,4.1,1.8,4.1,4.1c0,2.3-1.8,4.1-4.1,4.1h-78.5c-2.3,0-4.1-1.8-4.1-4.1C201.6-753,203.5-754.8,205.7-754.8z"/>
		<path class="st1" d="M205.7-734.4h78.5c2.3,0,4.1,1.8,4.1,4.1c0,2.3-1.8,4.1-4.1,4.1h-78.5c-2.3,0-4.1-1.8-4.1-4.1
			C201.6-732.6,203.5-734.4,205.7-734.4z"/>
		<path id="Rectangle-2_00000101789671654743822930000003941705089773139600_" class="st1" d="M205.7-714h128.5
			c2.3,0,4.1,1.8,4.1,4.1s-1.8,4.1-4.1,4.1H205.7c-2.3,0-4.1-1.8-4.1-4.1S203.5-714,205.7-714z"/>
		<path id="Rectangle-2-Copy_00000150782557240923360040000008113182780892407688_" class="st1" d="M205.7-693.6h128.5
			c2.3,0,4.1,1.8,4.1,4.1c0,2.3-1.8,4.1-4.1,4.1H205.7c-2.3,0-4.1-1.8-4.1-4.1C201.6-691.8,203.5-693.6,205.7-693.6z"/>
		<path class="st1" d="M205.7-673.2h128.5c2.3,0,4.1,1.8,4.1,4.1c0,2.3-1.8,4.1-4.1,4.1H205.7c-2.3,0-4.1-1.8-4.1-4.1
			C201.6-671.4,203.5-673.2,205.7-673.2z"/>
		<path class="st1" d="M205.7-652.8h128.5c2.3,0,4.1,1.8,4.1,4.1c0,2.3-1.8,4.1-4.1,4.1H205.7c-2.3,0-4.1-1.8-4.1-4.1
			C201.6-651,203.5-652.8,205.7-652.8z"/>
	</g>
	<g>
		<circle id="Oval_00000003798709578012306220000007406894994367572887_" class="st1" cx="391.1" cy="-1031.2" r="12"/>
		<circle class="st1" cx="426.1" cy="-1031.2" r="12"/>
		<circle id="Oval-Copy_00000043426615349627773810000001086231983240147109_" class="st1" cx="460.1" cy="-1031.2" r="12"/>
	</g>
	<g>
		<g id="Image-Placeholder_00000173144284888596012640000008168153154705410469_">
			<path class="st2" d="M136.3-1077H76.2c-6.5,0-11.7-5.3-11.7-11.7v-49.8c0-6.5,5.3-11.7,11.7-11.7h60.1c6.5,0,11.7,5.3,11.7,11.7
				v49.8C148-1082.2,142.8-1077,136.3-1077z"/>
			<g>
				<path class="st3" d="M90.7-1105.6v3.2h-9.1v-22.4H85v19.2H90.7z"/>
				<path class="st3" d="M103.4-1119.5v11.7c0,3.5-2.1,5.7-5.5,5.7c-3.4,0-5.5-2.1-5.5-5.7v-11.7c0-3.5,2.1-5.7,5.5-5.7
					C101.3-1125.2,103.4-1123,103.4-1119.5z M95.9-1119.5v11.7c0,1.7,0.7,2.6,2.1,2.6c1.3,0,2.1-0.9,2.1-2.6v-11.7
					c0-1.7-0.7-2.6-2.1-2.6C96.6-1122,95.9-1121.1,95.9-1119.5z"/>
				<path class="st3" d="M117-1119.8v1.5l-3.3,0.2v-1.3c0-1.8-0.7-2.6-2-2.6c-1.3,0-2,0.8-2,2.3v12.2c0,1.5,0.6,2.3,2,2.3
					c1.3,0,2-0.8,2-2.6v-3.8h-1.9v-3.1h5.3v7.3c0,3.4-2,5.4-5.4,5.4c-3.4,0-5.3-2-5.3-5.4v-12.3c0-3.4,1.9-5.4,5.3-5.4
					C115.1-1125.2,117-1123.2,117-1119.8z"/>
				<path class="st3" d="M130.8-1119.5v11.7c0,3.5-2.1,5.7-5.5,5.7c-3.4,0-5.5-2.1-5.5-5.7v-11.7c0-3.5,2.1-5.7,5.5-5.7
					C128.7-1125.2,130.8-1123,130.8-1119.5z M123.3-1119.5v11.7c0,1.7,0.7,2.6,2.1,2.6s2.1-0.9,2.1-2.6v-11.7c0-1.7-0.7-2.6-2.1-2.6
					S123.3-1121.1,123.3-1119.5z"/>
			</g>
		</g>
		<g>
			<g id="Image-Placeholder_00000006699689234611714420000009995742230194091947_">
				<g id="Mask_00000165931450540784201730000017371780331185236874_">
					<circle class="st2" cx="346.5" cy="-1119.4" r="28.8"/>
				</g>
			</g>
			<g>
				<path class="st3" d="M346.4-1135.4c4,0,7.3,3.2,7.3,7c0,3.9-3.3,11.3-7.3,11.3c-4,0-7.3-7.4-7.3-11.3
					C339.1-1132.3,342.4-1135.4,346.4-1135.4z"/>
				<path class="st3" d="M363.9-1103.5H329c0,0-0.6-14.1,8.4-14.1c1.9,2.7,4.5,5.4,9.2,5.4c4.7,0,7-2.6,8.8-5.4
					C365.4-1117.6,363.9-1103.5,363.9-1103.5z"/>
			</g>
		</g>
		<path id="Rectangle-2_00000007415409898999368650000004860586298920980648_" class="st1" d="M389.4-1143.4H468
			c2.3,0,4.1,1.8,4.1,4.1s-1.8,4.1-4.1,4.1h-78.5c-2.3,0-4.1-1.8-4.1-4.1S387.2-1143.4,389.4-1143.4z"/>
		<path id="Rectangle-2-Copy_00000158748817146881258210000018256383598463853700_" class="st1" d="M389.4-1123H468
			c2.3,0,4.1,1.8,4.1,4.1c0,2.3-1.8,4.1-4.1,4.1h-78.5c-2.3,0-4.1-1.8-4.1-4.1C385.3-1121.2,387.2-1123,389.4-1123z"/>
		<path class="st1" d="M389.4-1102.6H468c2.3,0,4.1,1.8,4.1,4.1c0,2.3-1.8,4.1-4.1,4.1h-78.5c-2.3,0-4.1-1.8-4.1-4.1
			C385.3-1100.8,387.2-1102.6,389.4-1102.6z"/>
		<path id="Rectangle-2_00000061434190464596316350000012296643391463583640_" class="st1" d="M166.1-1146.5h128.5
			c2.3,0,4.1,1.8,4.1,4.1s-1.8,4.1-4.1,4.1H166.1c-2.3,0-4.1-1.8-4.1-4.1S163.9-1146.5,166.1-1146.5z"/>
		<path id="Rectangle-2-Copy_00000065769343712366109630000007903977024644470711_" class="st1" d="M166.1-1126.7h128.5
			c2.3,0,4.1,1.8,4.1,4.1c0,2.3-1.8,4.1-4.1,4.1H166.1c-2.3,0-4.1-1.8-4.1-4.1C162-1124.9,163.9-1126.7,166.1-1126.7z"/>
		<path class="st1" d="M166.1-1106.9h128.5c2.3,0,4.1,1.8,4.1,4.1s-1.8,4.1-4.1,4.1H166.1c-2.3,0-4.1-1.8-4.1-4.1
			S163.9-1106.9,166.1-1106.9z"/>
		<path class="st1" d="M166.1-1087.1h128.5c2.3,0,4.1,1.8,4.1,4.1s-1.8,4.1-4.1,4.1H166.1c-2.3,0-4.1-1.8-4.1-4.1
			S163.9-1087.1,166.1-1087.1z"/>
	</g>
	<line class="st4" x1="64.4" y1="-1060.1" x2="472.1" y2="-1060.1"/>
	<g id="Image-Placeholder_00000098216371309037049140000007371066143955110801_">
		<g id="Mask_00000070096909473245429780000000774326721802065039_">
			<circle class="st2" cx="102.7" cy="-1946.9" r="42.7"/>
		</g>
	</g>
	<g>
		<circle id="Oval_00000001635796789674392170000005941788088208579515_" class="st1" cx="397.3" cy="-1863.6" r="12"/>
		<circle class="st1" cx="432.3" cy="-1863.6" r="12"/>
		<circle id="Oval-Copy_00000053515347868940222350000011804525170066597023_" class="st1" cx="466.3" cy="-1863.6" r="12"/>
	</g>
	<g id="Image-Placeholder_00000037690701835836399120000010499084721608985738_">
		<path class="st2" d="M136.3-1806.2H76.2c-6.5,0-11.7-5.3-11.7-11.7v-49.8c0-6.5,5.3-11.7,11.7-11.7h60.1c6.5,0,11.7,5.3,11.7,11.7
			v49.8C148-1811.4,142.8-1806.2,136.3-1806.2z"/>
		<g>
			<path class="st3" d="M90.7-1834.8v3.2h-9.1v-22.4H85v19.2H90.7z"/>
			<path class="st3" d="M103.4-1848.7v11.7c0,3.5-2.1,5.7-5.5,5.7c-3.4,0-5.5-2.1-5.5-5.7v-11.7c0-3.5,2.1-5.7,5.5-5.7
				C101.3-1854.4,103.4-1852.2,103.4-1848.7z M95.9-1848.7v11.7c0,1.7,0.7,2.6,2.1,2.6c1.3,0,2.1-0.9,2.1-2.6v-11.7
				c0-1.7-0.7-2.6-2.1-2.6C96.6-1851.2,95.9-1850.3,95.9-1848.7z"/>
			<path class="st3" d="M117-1849v1.5l-3.3,0.2v-1.3c0-1.8-0.7-2.6-2-2.6c-1.3,0-2,0.8-2,2.3v12.2c0,1.5,0.6,2.3,2,2.3
				c1.3,0,2-0.8,2-2.6v-3.8h-1.9v-3.1h5.3v7.3c0,3.4-2,5.4-5.4,5.4c-3.4,0-5.3-2-5.3-5.4v-12.3c0-3.4,1.9-5.4,5.3-5.4
				C115.1-1854.4,117-1852.4,117-1849z"/>
			<path class="st3" d="M130.8-1848.7v11.7c0,3.5-2.1,5.7-5.5,5.7c-3.4,0-5.5-2.1-5.5-5.7v-11.7c0-3.5,2.1-5.7,5.5-5.7
				C128.7-1854.4,130.8-1852.2,130.8-1848.7z M123.3-1848.7v11.7c0,1.7,0.7,2.6,2.1,2.6s2.1-0.9,2.1-2.6v-11.7
				c0-1.7-0.7-2.6-2.1-2.6S123.3-1850.3,123.3-1848.7z"/>
		</g>
	</g>
	<g>
		<path class="st3" d="M102.6-1970.6c6,0,10.8,4.7,10.8,10.4c0,5.8-4.9,16.8-10.8,16.8s-10.8-11-10.8-16.8
			C91.8-1965.9,96.6-1970.6,102.6-1970.6z"/>
		<path class="st3" d="M128.5-1923.2H76.8c0,0-0.9-21,12.4-21c2.8,4.1,6.6,7.9,13.6,7.9c7,0,10.3-3.9,13.1-8
			C130.8-1944.3,128.5-1923.2,128.5-1923.2z"/>
	</g>
	<path id="Rectangle-2_00000135663472757499973050000015712198519786235311_" class="st1" d="M172.1-1975.6h88.5
		c2.3,0,4.1,1.8,4.1,4.1c0,2.3-1.8,4.1-4.1,4.1h-88.5c-2.3,0-4.1-1.8-4.1-4.1C168-1973.8,169.8-1975.6,172.1-1975.6z"/>
	<path id="Rectangle-2-Copy_00000155121104649935703910000007869174917026544310_" class="st1" d="M172.1-1955.2h88.5
		c2.3,0,4.1,1.8,4.1,4.1s-1.8,4.1-4.1,4.1h-88.5c-2.3,0-4.1-1.8-4.1-4.1S169.8-1955.2,172.1-1955.2z"/>
	<path class="st1" d="M172.1-1934.8h88.5c2.3,0,4.1,1.8,4.1,4.1c0,2.3-1.8,4.1-4.1,4.1h-88.5c-2.3,0-4.1-1.8-4.1-4.1
		C168-1933,169.8-1934.8,172.1-1934.8z"/>
	<path id="Rectangle-2_00000003802633911816533010000016750496005587647397_" class="st1" d="M295.7-1975.6h178.5
		c2.3,0,4.1,1.8,4.1,4.1c0,2.3-1.8,4.1-4.1,4.1H295.7c-2.3,0-4.1-1.8-4.1-4.1C291.6-1973.8,293.4-1975.6,295.7-1975.6z"/>
	<path id="Rectangle-2-Copy_00000120545924365614695280000012902346291515289256_" class="st1" d="M295.7-1955.8h178.5
		c2.3,0,4.1,1.8,4.1,4.1s-1.8,4.1-4.1,4.1H295.7c-2.3,0-4.1-1.8-4.1-4.1S293.4-1955.8,295.7-1955.8z"/>
	<path class="st1" d="M295.7-1935.9h178.5c2.3,0,4.1,1.8,4.1,4.1s-1.8,4.1-4.1,4.1H295.7c-2.3,0-4.1-1.8-4.1-4.1
		S293.4-1935.9,295.7-1935.9z"/>
	<path class="st1" d="M295.7-1916.1h178.5c2.3,0,4.1,1.8,4.1,4.1c0,2.3-1.8,4.1-4.1,4.1H295.7c-2.3,0-4.1-1.8-4.1-4.1
		C291.6-1914.3,293.4-1916.1,295.7-1916.1z"/>
	<line class="st4" x1="70.8" y1="-1892.6" x2="478.4" y2="-1892.6"/>
	<g id="Image-Placeholder_00000000945331681045778980000017418075239053577907_">
		<g id="Mask_00000014614743887721804890000004328188041182215846_">
			<circle class="st2" cx="124" cy="-2273.1" r="64"/>
		</g>
	</g>
	<g>
		<circle id="Oval_00000129199513905552466280000001860267531501370519_" class="st1" cx="89.5" cy="-2183.1" r="12"/>
		<circle class="st1" cx="124.5" cy="-2183.1" r="12"/>
		<circle id="Oval-Copy_00000072256847071249815420000014149727281135171727_" class="st1" cx="158.5" cy="-2183.1" r="12"/>
	</g>
	<g>
		<path class="st3" d="M123.8-2308.6c8.9,0,16.2,7,16.2,15.6c0,8.6-7.3,25.1-16.2,25.1s-16.2-16.5-16.2-25.1
			C107.7-2301.6,114.9-2308.6,123.8-2308.6z"/>
		<path class="st3" d="M162.7-2237.6H85.2c0,0-1.3-31.4,18.6-31.4c4.2,6.1,9.9,11.9,20.4,11.9c10.5,0,15.5-5.9,19.6-12
			C166.1-2269.1,162.7-2237.6,162.7-2237.6z"/>
	</g>
	<path id="Rectangle-2_00000127739051747044431380000002312883924335602056_" class="st1" d="M223-2235.6h252c2.8,0,5,2.2,5,5
		s-2.2,5-5,5H223c-2.8,0-5-2.2-5-5S220.2-2235.6,223-2235.6z"/>
	<path id="Rectangle-2-Copy_00000183942689329915408420000010731248039532096907_" class="st1" d="M223-2210.6h252c2.8,0,5,2.2,5,5
		s-2.2,5-5,5H223c-2.8,0-5-2.2-5-5S220.2-2210.6,223-2210.6z"/>
	<path class="st1" d="M223-2185.6h252c2.8,0,5,2.2,5,5s-2.2,5-5,5H223c-2.8,0-5-2.2-5-5S220.2-2185.6,223-2185.6z"/>
	<path id="Rectangle-2_00000160877795863333549610000005579376029096155571_" class="st1" d="M223-2328.5h182c2.8,0,5,2.2,5,5
		s-2.2,5-5,5H223c-2.8,0-5-2.2-5-5S220.2-2328.5,223-2328.5z"/>
	<path id="Rectangle-2-Copy_00000108996710098120066380000014805186699248698800_" class="st1" d="M223-2303.5h182c2.8,0,5,2.2,5,5
		s-2.2,5-5,5H223c-2.8,0-5-2.2-5-5S220.2-2303.5,223-2303.5z"/>
	<path class="st1" d="M223-2278.5h182c2.8,0,5,2.2,5,5c0,2.8-2.2,5-5,5H223c-2.8,0-5-2.2-5-5C218-2276.3,220.2-2278.5,223-2278.5z"
		/>
	<line class="st4" x1="219.3" y1="-2251.7" x2="471.9" y2="-2251.7"/>
	<rect x="101.2" y="-333.6" class="st1" width="337.6" height="43.3"/>
	<g>
		<path class="st3" d="M217.1,135.9h45.3V90.6h-45.3V135.9z M232.2,105.7h15.1v15.1h-15.1V105.7z M277.6,90.6v45.3h45.3V90.6H277.6z
			 M307.8,120.8h-15.1v-15.1h15.1V120.8z M217.1,196.4h45.3v-45.3h-45.3V196.4z M232.2,166.2h15.1v15.1h-15.1V166.2z M315.3,151.1
			h7.6v30.2h-22.7v-7.6h-7.6v22.7h-15.1v-45.3h22.7v7.6h15.1V151.1z M315.3,188.8h7.6v7.6h-7.6V188.8z M300.2,188.8h7.6v7.6h-7.6
			V188.8z"/>
	</g>
</g>
</svg>
