<?xml version="1.0" encoding="utf-8"?>
<!-- Generator: Adobe Illustrator 26.2.1, SVG Export Plug-In . SVG Version: 6.00 Build 0)  -->
<svg version="1.1" xmlns="http://www.w3.org/2000/svg" xmlns:xlink="http://www.w3.org/1999/xlink" x="0px" y="0px"
	 viewBox="0 0 540 287" style="enable-background:new 0 0 540 287;" xml:space="preserve">
<style type="text/css">
	.st0{fill-rule:evenodd;clip-rule:evenodd;fill:#FFFFFF;}
	.st1{fill-rule:evenodd;clip-rule:evenodd;fill:#CBD6E2;}
	.st2{fill-rule:evenodd;clip-rule:evenodd;fill:#F2F5F8;}
	.st3{fill:#CBD6E2;}
	.st4{fill:none;stroke:#CBD6E2;stroke-width:3;stroke-miterlimit:10;}
</style>
<g id="Calque_2">
	<path class="st0" d="M8,0h524c4.4,0,8,3.6,8,8v271c0,4.4-3.6,8-8,8H8c-4.4,0-8-3.6-8-8V8C0,3.6,3.6,0,8,0z"/>
</g>
<g id="Layer_1">
	<g>
		<circle id="Oval_00000003798709578012306220000007406894994367572887_" class="st1" cx="391.1" cy="186" r="12"/>
		<circle class="st1" cx="426.1" cy="186" r="12"/>
		<circle id="Oval-Copy_00000043426615349627773810000001086231983240147109_" class="st1" cx="460.1" cy="186" r="12"/>
	</g>
	<g>
		<g id="Image-Placeholder_00000173144284888596012640000008168153154705410469_">
			<path class="st2" d="M136.3,140.2H76.2c-6.5,0-11.7-5.3-11.7-11.7V78.6c0-6.5,5.3-11.7,11.7-11.7h60.1c6.5,0,11.7,5.3,11.7,11.7
				v49.8C148,135,142.8,140.2,136.3,140.2z"/>
			<g>
				<path class="st3" d="M90.7,111.6v3.2h-9.1V92.3H85v19.2H90.7z"/>
				<path class="st3" d="M103.4,97.7v11.7c0,3.5-2.1,5.7-5.5,5.7c-3.4,0-5.5-2.1-5.5-5.7V97.7c0-3.5,2.1-5.7,5.5-5.7
					C101.3,92,103.4,94.2,103.4,97.7z M95.9,97.7v11.7c0,1.7,0.7,2.6,2.1,2.6c1.3,0,2.1-0.9,2.1-2.6V97.7c0-1.7-0.7-2.6-2.1-2.6
					C96.6,95.2,95.9,96,95.9,97.7z"/>
				<path class="st3" d="M117,97.4v1.5l-3.3,0.2v-1.3c0-1.8-0.7-2.6-2-2.6c-1.3,0-2,0.8-2,2.3v12.2c0,1.5,0.6,2.3,2,2.3
					c1.3,0,2-0.8,2-2.6v-3.8h-1.9v-3.1h5.3v7.3c0,3.4-2,5.4-5.4,5.4c-3.4,0-5.3-2-5.3-5.4V97.4c0-3.4,1.9-5.4,5.3-5.4
					C115.1,92,117,94,117,97.4z"/>
				<path class="st3" d="M130.8,97.7v11.7c0,3.5-2.1,5.7-5.5,5.7c-3.4,0-5.5-2.1-5.5-5.7V97.7c0-3.5,2.1-5.7,5.5-5.7
					C128.7,92,130.8,94.2,130.8,97.7z M123.3,97.7v11.7c0,1.7,0.7,2.6,2.1,2.6s2.1-0.9,2.1-2.6V97.7c0-1.7-0.7-2.6-2.1-2.6
					S123.3,96,123.3,97.7z"/>
			</g>
		</g>
		<g>
			<g id="Image-Placeholder_00000006699689234611714420000009995742230194091947_">
				<g id="Mask_00000165931450540784201730000017371780331185236874_">
					<circle class="st2" cx="346.5" cy="97.8" r="28.8"/>
				</g>
			</g>
			<g>
				<path class="st3" d="M346.4,81.8c4,0,7.3,3.2,7.3,7c0,3.9-3.3,11.3-7.3,11.3c-4,0-7.3-7.4-7.3-11.3
					C339.1,84.9,342.4,81.8,346.4,81.8z"/>
				<path class="st3" d="M363.9,113.7H329c0,0-0.6-14.1,8.4-14.1c1.9,2.7,4.5,5.4,9.2,5.4c4.7,0,7-2.6,8.8-5.4
					C365.4,99.6,363.9,113.7,363.9,113.7z"/>
			</g>
		</g>
		<path id="Rectangle-2_00000007415409898999368650000004860586298920980648_" class="st1" d="M389.4,73.8H468
			c2.3,0,4.1,1.8,4.1,4.1s-1.8,4.1-4.1,4.1h-78.5c-2.3,0-4.1-1.8-4.1-4.1S387.2,73.8,389.4,73.8z"/>
		<path id="Rectangle-2-Copy_00000158748817146881258210000018256383598463853700_" class="st1" d="M389.4,94.2H468
			c2.3,0,4.1,1.8,4.1,4.1c0,2.3-1.8,4.1-4.1,4.1h-78.5c-2.3,0-4.1-1.8-4.1-4.1C385.3,96,387.2,94.2,389.4,94.2z"/>
		<path class="st1" d="M389.4,114.6H468c2.3,0,4.1,1.8,4.1,4.1c0,2.3-1.8,4.1-4.1,4.1h-78.5c-2.3,0-4.1-1.8-4.1-4.1
			C385.3,116.4,387.2,114.6,389.4,114.6z"/>
		<path id="Rectangle-2_00000061434190464596316350000012296643391463583640_" class="st1" d="M166.1,70.6h128.5
			c2.3,0,4.1,1.8,4.1,4.1s-1.8,4.1-4.1,4.1H166.1c-2.3,0-4.1-1.8-4.1-4.1S163.9,70.6,166.1,70.6z"/>
		<path id="Rectangle-2-Copy_00000065769343712366109630000007903977024644470711_" class="st1" d="M166.1,90.5h128.5
			c2.3,0,4.1,1.8,4.1,4.1c0,2.3-1.8,4.1-4.1,4.1H166.1c-2.3,0-4.1-1.8-4.1-4.1C162,92.3,163.9,90.5,166.1,90.5z"/>
		<path class="st1" d="M166.1,110.3h128.5c2.3,0,4.1,1.8,4.1,4.1c0,2.3-1.8,4.1-4.1,4.1H166.1c-2.3,0-4.1-1.8-4.1-4.1
			C162,112.1,163.9,110.3,166.1,110.3z"/>
		<path class="st1" d="M166.1,130.1h128.5c2.3,0,4.1,1.8,4.1,4.1s-1.8,4.1-4.1,4.1H166.1c-2.3,0-4.1-1.8-4.1-4.1
			S163.9,130.1,166.1,130.1z"/>
	</g>
	<line class="st4" x1="64.4" y1="157.1" x2="472.1" y2="157.1"/>
</g>
</svg>
