<?xml version="1.0" encoding="utf-8"?>
<!-- Generator: Adobe Illustrator 26.2.1, SVG Export Plug-In . SVG Version: 6.00 Build 0)  -->
<svg version="1.1" xmlns="http://www.w3.org/2000/svg" xmlns:xlink="http://www.w3.org/1999/xlink" x="0px" y="0px"
	 viewBox="0 0 540 287" style="enable-background:new 0 0 540 287;" xml:space="preserve">
<style type="text/css">
	.st0{fill-rule:evenodd;clip-rule:evenodd;fill:#FFFFFF;}
	.st1{fill-rule:evenodd;clip-rule:evenodd;fill:#CBD6E2;}
	.st2{fill-rule:evenodd;clip-rule:evenodd;fill:#F2F5F8;}
	.st3{fill:#CBD6E2;}
	.st4{fill:none;stroke:#CBD6E2;stroke-width:3;stroke-miterlimit:10;}
</style>
<g id="Calque_2">
	<path class="st0" d="M8,0h524c4.4,0,8,3.6,8,8v271c0,4.4-3.6,8-8,8H8c-4.4,0-8-3.6-8-8V8C0,3.6,3.6,0,8,0z"/>
</g>
<g id="Layer_1">
	<g>
		<g>
			<circle id="Oval_00000055670314084055141320000015539847093565619586_" class="st1" cx="188.6" cy="228.2" r="12"/>
			<circle class="st1" cx="223.6" cy="228.2" r="12"/>
			<circle id="Oval-Copy_00000157295440791107080550000010351585492589390738_" class="st1" cx="257.6" cy="228.2" r="12"/>
		</g>
		<g id="Image-Placeholder_00000107558589754187516480000007155883995966686651_">
			<path class="st2" d="M248.5,120.1h-60.1c-6.5,0-11.7-5.3-11.7-11.7V58.5c0-6.5,5.3-11.7,11.7-11.7h60.1c6.5,0,11.7,5.3,11.7,11.7
				v49.8C260.3,114.9,255,120.1,248.5,120.1z"/>
			<g>
				<path class="st3" d="M202.9,91.5v3.2h-9.1V72.2h3.4v19.2H202.9z"/>
				<path class="st3" d="M215.7,77.6v11.7c0,3.5-2.1,5.7-5.5,5.7s-5.5-2.1-5.5-5.7V77.6c0-3.5,2.1-5.7,5.5-5.7
					S215.7,74.1,215.7,77.6z M208.1,77.6v11.7c0,1.7,0.7,2.6,2.1,2.6s2.1-0.9,2.1-2.6V77.6c0-1.7-0.7-2.6-2.1-2.6
					S208.1,75.9,208.1,77.6z"/>
				<path class="st3" d="M229.2,77.3v1.5L226,79v-1.3c0-1.8-0.7-2.6-2-2.6c-1.3,0-2,0.8-2,2.3v12.2c0,1.5,0.6,2.3,2,2.3s2-0.8,2-2.6
					v-3.8H224v-3.1h5.3v7.3c0,3.4-2,5.4-5.4,5.4c-3.4,0-5.3-2-5.3-5.4V77.3c0-3.4,1.9-5.4,5.3-5.4C227.3,71.9,229.2,73.9,229.2,77.3
					z"/>
				<path class="st3" d="M243.1,77.6v11.7c0,3.5-2.1,5.7-5.5,5.7s-5.5-2.1-5.5-5.7V77.6c0-3.5,2.1-5.7,5.5-5.7
					S243.1,74.1,243.1,77.6z M235.5,77.6v11.7c0,1.7,0.7,2.6,2.1,2.6s2.1-0.9,2.1-2.6V77.6c0-1.7-0.7-2.6-2.1-2.6
					S235.5,75.9,235.5,77.6z"/>
			</g>
		</g>
		<g>
			<path id="Rectangle-2_00000103978926884953393570000011710367608386795695_" class="st1" d="M180.7,136.5h178.5
				c2.3,0,4.1,1.8,4.1,4.1c0,2.3-1.8,4.1-4.1,4.1H180.7c-2.3,0-4.1-1.8-4.1-4.1C176.6,138.3,178.5,136.5,180.7,136.5z"/>
			<path id="Rectangle-2-Copy_00000155121930581965489930000006637069257207536528_" class="st1" d="M180.7,156.3h178.5
				c2.3,0,4.1,1.8,4.1,4.1s-1.8,4.1-4.1,4.1H180.7c-2.3,0-4.1-1.8-4.1-4.1S178.5,156.3,180.7,156.3z"/>
			<path class="st1" d="M180.7,176.1h178.5c2.3,0,4.1,1.8,4.1,4.1s-1.8,4.1-4.1,4.1H180.7c-2.3,0-4.1-1.8-4.1-4.1
				S178.5,176.1,180.7,176.1z"/>
			<path class="st1" d="M180.7,195.9h178.5c2.3,0,4.1,1.8,4.1,4.1s-1.8,4.1-4.1,4.1H180.7c-2.3,0-4.1-1.8-4.1-4.1
				S178.5,195.9,180.7,195.9z"/>
		</g>
	</g>
</g>
</svg>
