<?xml version="1.0" encoding="utf-8"?>
<!-- Generator: Adobe Illustrator 26.2.1, SVG Export Plug-In . SVG Version: 6.00 Build 0)  -->
<svg version="1.1" xmlns="http://www.w3.org/2000/svg" xmlns:xlink="http://www.w3.org/1999/xlink" x="0px" y="0px"
	 viewBox="0 0 540 287" style="enable-background:new 0 0 540 287;" xml:space="preserve">
<style type="text/css">
	.st0{fill-rule:evenodd;clip-rule:evenodd;fill:#FFFFFF;}
	.st1{fill-rule:evenodd;clip-rule:evenodd;fill:#CBD6E2;}
	.st2{fill-rule:evenodd;clip-rule:evenodd;fill:#F2F5F8;}
	.st3{fill:#CBD6E2;}
	.st4{fill:none;stroke:#CBD6E2;stroke-width:3;stroke-miterlimit:10;}
</style>
<g id="Calque_2">
	<path class="st0" d="M8,0h524c4.4,0,8,3.6,8,8v271c0,4.4-3.6,8-8,8H8c-4.4,0-8-3.6-8-8V8C0,3.6,3.6,0,8,0z"/>
</g>
<g id="Layer_1">
	<g>
		<path class="st3" d="M217.1,135.9h45.3V90.6h-45.3V135.9z M232.2,105.7h15.1v15.1h-15.1V105.7z M277.6,90.6v45.3h45.3V90.6H277.6z
			 M307.8,120.8h-15.1v-15.1h15.1V120.8z M217.1,196.4h45.3v-45.3h-45.3V196.4z M232.2,166.2h15.1v15.1h-15.1V166.2z M315.3,151.1
			h7.6v30.2h-22.7v-7.6h-7.6v22.7h-15.1v-45.3h22.7v7.6h15.1V151.1z M315.3,188.8h7.6v7.6h-7.6V188.8z M300.2,188.8h7.6v7.6h-7.6
			V188.8z"/>
	</g>
</g>
</svg>
