<?xml version="1.0" encoding="utf-8"?>
<!-- Generator: Adobe Illustrator 26.2.1, SVG Export Plug-In . SVG Version: 6.00 Build 0)  -->
<svg version="1.1" xmlns="http://www.w3.org/2000/svg" xmlns:xlink="http://www.w3.org/1999/xlink" x="0px" y="0px"
	 viewBox="0 0 540 287" style="enable-background:new 0 0 540 287;" xml:space="preserve">
<style type="text/css">
	.st0{fill-rule:evenodd;clip-rule:evenodd;fill:#FFFFFF;}
	.st1{fill-rule:evenodd;clip-rule:evenodd;fill:#CBD6E2;}
	.st2{fill-rule:evenodd;clip-rule:evenodd;fill:#F2F5F8;}
	.st3{fill:#CBD6E2;}
	.st4{fill:none;stroke:#CBD6E2;stroke-width:3;stroke-miterlimit:10;}
</style>
<g id="Calque_2">
	<path class="st0" d="M8,0h524c4.4,0,8,3.6,8,8v271c0,4.4-3.6,8-8,8H8c-4.4,0-8-3.6-8-8V8C0,3.6,3.6,0,8,0z"/>
</g>
<g id="Layer_1">
	<g>
		<path id="Rectangle-2_00000138552628259619750660000015937557222502356654_" class="st1" d="M205.7,78.2h78.5
			c2.3,0,4.1,1.8,4.1,4.1s-1.8,4.1-4.1,4.1h-78.5c-2.3,0-4.1-1.8-4.1-4.1S203.5,78.2,205.7,78.2z"/>
		<path id="Rectangle-2-Copy_00000023971061093931236310000001893192048097964961_" class="st1" d="M205.7,98.6h78.5
			c2.3,0,4.1,1.8,4.1,4.1c0,2.3-1.8,4.1-4.1,4.1h-78.5c-2.3,0-4.1-1.8-4.1-4.1C201.6,100.4,203.5,98.6,205.7,98.6z"/>
		<path class="st1" d="M205.7,119h78.5c2.3,0,4.1,1.8,4.1,4.1c0,2.3-1.8,4.1-4.1,4.1h-78.5c-2.3,0-4.1-1.8-4.1-4.1
			C201.6,120.8,203.5,119,205.7,119z"/>
		<path id="Rectangle-2_00000101789671654743822930000003941705089773139600_" class="st1" d="M205.7,139.4h128.5
			c2.3,0,4.1,1.8,4.1,4.1s-1.8,4.1-4.1,4.1H205.7c-2.3,0-4.1-1.8-4.1-4.1S203.5,139.4,205.7,139.4z"/>
		<path id="Rectangle-2-Copy_00000150782557240923360040000008113182780892407688_" class="st1" d="M205.7,159.8h128.5
			c2.3,0,4.1,1.8,4.1,4.1s-1.8,4.1-4.1,4.1H205.7c-2.3,0-4.1-1.8-4.1-4.1S203.5,159.8,205.7,159.8z"/>
		<path class="st1" d="M205.7,180.2h128.5c2.3,0,4.1,1.8,4.1,4.1c0,2.3-1.8,4.1-4.1,4.1H205.7c-2.3,0-4.1-1.8-4.1-4.1
			C201.6,182.1,203.5,180.2,205.7,180.2z"/>
		<path class="st1" d="M205.7,200.6h128.5c2.3,0,4.1,1.8,4.1,4.1c0,2.3-1.8,4.1-4.1,4.1H205.7c-2.3,0-4.1-1.8-4.1-4.1
			C201.6,202.5,203.5,200.6,205.7,200.6z"/>
	</g>
</g>
</svg>
