<?xml version="1.0" encoding="utf-8"?>
<!-- Generator: Adobe Illustrator 26.2.1, SVG Export Plug-In . SVG Version: 6.00 Build 0)  -->
<svg version="1.1" xmlns="http://www.w3.org/2000/svg" xmlns:xlink="http://www.w3.org/1999/xlink" x="0px" y="0px"
	 viewBox="0 0 540 287" style="enable-background:new 0 0 540 287;" xml:space="preserve">
<style type="text/css">
	.st0{fill-rule:evenodd;clip-rule:evenodd;fill:#FFFFFF;}
	.st1{fill-rule:evenodd;clip-rule:evenodd;fill:#CBD6E2;}
	.st2{fill-rule:evenodd;clip-rule:evenodd;fill:#F2F5F8;}
	.st3{fill:#CBD6E2;}
	.st4{fill:none;stroke:#CBD6E2;stroke-width:3;stroke-miterlimit:10;}
</style>
<g id="Calque_2">
	<path class="st0" d="M8,0h524c4.4,0,8,3.6,8,8v271c0,4.4-3.6,8-8,8H8c-4.4,0-8-3.6-8-8V8C0,3.6,3.6,0,8,0z"/>
</g>
<g id="Layer_1">
	<g id="Image-Placeholder_00000098216371309037049140000007371066143955110801_">
		<g id="Mask_00000070096909473245429780000000774326721802065039_">
			<circle class="st2" cx="102.7" cy="102.7" r="42.7"/>
		</g>
	</g>
	<g>
		<circle id="Oval_00000001635796789674392170000005941788088208579515_" class="st1" cx="397.3" cy="186" r="12"/>
		<circle class="st1" cx="432.3" cy="186" r="12"/>
		<circle id="Oval-Copy_00000053515347868940222350000011804525170066597023_" class="st1" cx="466.3" cy="186" r="12"/>
	</g>
	<g id="Image-Placeholder_00000037690701835836399120000010499084721608985738_">
		<path class="st2" d="M136.3,243.5H76.2c-6.5,0-11.7-5.3-11.7-11.7v-49.8c0-6.5,5.3-11.7,11.7-11.7h60.1c6.5,0,11.7,5.3,11.7,11.7
			v49.8C148,238.2,142.8,243.5,136.3,243.5z"/>
		<g>
			<path class="st3" d="M90.7,214.8v3.2h-9.1v-22.4H85v19.2H90.7z"/>
			<path class="st3" d="M103.4,200.9v11.7c0,3.5-2.1,5.7-5.5,5.7c-3.4,0-5.5-2.1-5.5-5.7v-11.7c0-3.5,2.1-5.7,5.5-5.7
				C101.3,195.3,103.4,197.4,103.4,200.9z M95.9,201v11.7c0,1.7,0.7,2.6,2.1,2.6c1.3,0,2.1-0.9,2.1-2.6V201c0-1.7-0.7-2.6-2.1-2.6
				C96.6,198.4,95.9,199.3,95.9,201z"/>
			<path class="st3" d="M117,200.6v1.5l-3.3,0.2V201c0-1.8-0.7-2.6-2-2.6c-1.3,0-2,0.8-2,2.3v12.2c0,1.5,0.6,2.3,2,2.3
				c1.3,0,2-0.8,2-2.6v-3.8h-1.9v-3.1h5.3v7.3c0,3.4-2,5.4-5.4,5.4c-3.4,0-5.3-2-5.3-5.4v-12.3c0-3.4,1.9-5.4,5.3-5.4
				C115.1,195.3,117,197.2,117,200.6z"/>
			<path class="st3" d="M130.8,200.9v11.7c0,3.5-2.1,5.7-5.5,5.7c-3.4,0-5.5-2.1-5.5-5.7v-11.7c0-3.5,2.1-5.7,5.5-5.7
				C128.7,195.3,130.8,197.4,130.8,200.9z M123.3,201v11.7c0,1.7,0.7,2.6,2.1,2.6s2.1-0.9,2.1-2.6V201c0-1.7-0.7-2.6-2.1-2.6
				S123.3,199.3,123.3,201z"/>
		</g>
	</g>
	<g>
		<path class="st3" d="M102.6,79c6,0,10.8,4.7,10.8,10.4c0,5.8-4.9,16.8-10.8,16.8s-10.8-11-10.8-16.8C91.8,83.7,96.6,79,102.6,79z"
			/>
		<path class="st3" d="M128.5,126.4H76.8c0,0-0.9-21,12.4-21c2.8,4.1,6.6,7.9,13.6,7.9c7,0,10.3-3.9,13.1-8
			C130.8,105.4,128.5,126.4,128.5,126.4z"/>
	</g>
	<path id="Rectangle-2_00000135663472757499973050000015712198519786235311_" class="st1" d="M172.1,74h88.5c2.3,0,4.1,1.8,4.1,4.1
		s-1.8,4.1-4.1,4.1h-88.5c-2.3,0-4.1-1.8-4.1-4.1S169.8,74,172.1,74z"/>
	<path id="Rectangle-2-Copy_00000155121104649935703910000007869174917026544310_" class="st1" d="M172.1,94.5h88.5
		c2.3,0,4.1,1.8,4.1,4.1c0,2.3-1.8,4.1-4.1,4.1h-88.5c-2.3,0-4.1-1.8-4.1-4.1C168,96.3,169.8,94.5,172.1,94.5z"/>
	<path class="st1" d="M172.1,114.9h88.5c2.3,0,4.1,1.8,4.1,4.1c0,2.3-1.8,4.1-4.1,4.1h-88.5c-2.3,0-4.1-1.8-4.1-4.1
		C168,116.7,169.8,114.9,172.1,114.9z"/>
	<path id="Rectangle-2_00000003802633911816533010000016750496005587647397_" class="st1" d="M295.7,74h178.5c2.3,0,4.1,1.8,4.1,4.1
		s-1.8,4.1-4.1,4.1H295.7c-2.3,0-4.1-1.8-4.1-4.1S293.4,74,295.7,74z"/>
	<path id="Rectangle-2-Copy_00000120545924365614695280000012902346291515289256_" class="st1" d="M295.7,93.9h178.5
		c2.3,0,4.1,1.8,4.1,4.1s-1.8,4.1-4.1,4.1H295.7c-2.3,0-4.1-1.8-4.1-4.1S293.4,93.9,295.7,93.9z"/>
	<path class="st1" d="M295.7,113.7h178.5c2.3,0,4.1,1.8,4.1,4.1c0,2.3-1.8,4.1-4.1,4.1H295.7c-2.3,0-4.1-1.8-4.1-4.1
		C291.6,115.5,293.4,113.7,295.7,113.7z"/>
	<path class="st1" d="M295.7,133.5h178.5c2.3,0,4.1,1.8,4.1,4.1c0,2.3-1.8,4.1-4.1,4.1H295.7c-2.3,0-4.1-1.8-4.1-4.1
		C291.6,135.3,293.4,133.5,295.7,133.5z"/>
	<line class="st4" x1="70.8" y1="157.1" x2="478.4" y2="157.1"/>
</g>
</svg>
